<svg id="AngryMonky-logo_white" data-name="AngryMonky-logo white" xmlns="http://www.w3.org/2000/svg" xmlns:xlink="http://www.w3.org/1999/xlink" width="241.934" height="40" viewBox="0 0 241.934 40">
  <defs>
    <clipPath id="clip-path">
      <rect id="Rectangle_189" data-name="Rectangle 189" width="241.934" height="40" fill="none"/>
    </clipPath>
  </defs>
  <path id="Path_3184" data-name="Path 3184" d="M9.938,62.884l2.218-8.394h.475l1.743,8.394-2.218.041ZM7.761,47.4,0,73.021H7.761l.673-4.276,3.247-.158,3.88.079.04.119.712,4.237h8.038L17.343,47.4Z" transform="translate(0 -41.148)" fill="#e22829"/>
  <path id="Path_3185" data-name="Path 3185" d="M216.895,87.109l.238,9.068H216.7l-5.227-9.345h-8l.356,14.374-.356,5.939h6.652l-.277-7.523.039-1.822h.4l5.227,9.345h8l-.277-6.811.4-13.622Z" transform="translate(-176.625 -75.272)" fill="#e22829"/>
  <g id="Group_755" data-name="Group 755">
    <g id="Group_754" data-name="Group 754" clip-path="url(#clip-path)">
      <path id="Path_3186" data-name="Path 3186" d="M386.165,91.07a4.953,4.953,0,0,1,2.079-.336,9.574,9.574,0,0,1,2.613.336,22.833,22.833,0,0,1,2.891,1.089h.554l1.584-6.454a20.994,20.994,0,0,0-6.256-.792q-5.98,0-9.187,2.812t-3.207,8.2q0,4.871,2.713,7.484t8.058,2.613a21.827,21.827,0,0,0,7.761-1.465V98.732l.119-2.771-6.692.435.079,3.6v.514a.439.439,0,0,0-.237-.02,2.854,2.854,0,0,1-.356.02,5.622,5.622,0,0,1-2.356-.376,2.172,2.172,0,0,1-1.089-1.425,11.834,11.834,0,0,1-.317-3.188,12.725,12.725,0,0,1,.277-3.108,1.96,1.96,0,0,1,.97-1.346" transform="translate(-327.464 -73.71)" fill="#e22829"/>
      <path id="Path_3187" data-name="Path 3187" d="M557.165,100.046a8.828,8.828,0,0,0,2.515-2.752,6.578,6.578,0,0,0,.891-3.306,5.75,5.75,0,0,0-2.019-4.731,8.817,8.817,0,0,0-5.7-1.644H542l.356,14.413-.356,5.9h7.365l-.277-5.622h1.979q.752,1.662,2.416,5.266l.99.752a33.988,33.988,0,0,0,7.167-1.306l.119-.792q-1.742-2.139-4.593-6.177m-4.692-3.841a2.654,2.654,0,0,1-1.129.95L549.167,97l.158-4.276.871-.079a3.624,3.624,0,0,1,2.02.554,1.862,1.862,0,0,1,.594,1.545,2.811,2.811,0,0,1-.336,1.465" transform="translate(-470.489 -76.053)" fill="#e22829"/>
      <path id="Path_3188" data-name="Path 3188" d="M697.573,101.869l7.761-14.255H697.85l-.792,2.138-2.415,4.99h-.4l-2.059-5.266-.554-1.862h-7.682l6.89,14.453.039.673-.356,5.187h7.325l-.317-5.187Z" transform="translate(-593.711 -76.054)" fill="#e22829"/>
      <path id="Path_3189" data-name="Path 3189" d="M929.422,11.44l-6.732.4.237,9.068h-.435l-5.226-9.345h-7.952A20,20,0,0,0,872.337,13.3l-.567-7.048h-9.029l-.91,3.92L859.336,19.2h-.475L856.6,9.9l-.753-3.643h-9.146L844.21,31.873h6.613l.4-8.513.554-5.7h.475l3.405,11.8h5.979l4.118-11.8h.475l.435,6.454.2,7.761h6.969l-.182-2.264a20,20,0,0,0,35.851-1.57l-.23,3.834h6.652l-.277-7.523.04-1.822h.4l5.227,9.345h8l-.277-6.811ZM891.183,38.13A18.13,18.13,0,1,1,909.313,20a18.151,18.151,0,0,1-18.13,18.131" transform="translate(-732.826)" fill="#fff"/>
      <path id="Path_3190" data-name="Path 3190" d="M1541.163,87.614h-7.721l-1.109,2.337-3.564,5.821.277-8.157h-7.484l.356,14.413-.356,5.9h7.365l-.317-6.652.079-2.257q2.1,3.96,4.87,8.869l.832.435a51.725,51.725,0,0,0,7.325-1.148l.119-.792q-3.644-4.593-6.613-9.147Z" transform="translate(-1320.809 -76.054)" fill="#fff"/>
      <path id="Path_3191" data-name="Path 3191" d="M1685.239,101.869,1693,87.614h-7.484l-.792,2.138-2.416,4.99h-.4l-2.059-5.266-.555-1.862h-7.682l6.89,14.453.04.673-.356,5.187h7.325l-.317-5.187Z" transform="translate(-1451.066 -76.054)" fill="#fff"/>
      <path id="Path_3192" data-name="Path 3192" d="M1098.672,133.973a3.644,3.644,0,0,1-3.211-1.206,4.106,4.106,0,0,1-.7-3.513c.039-.184.091-.368.148-.552-1.023-.6-1.969-1.163-2.805-1.669a7.062,7.062,0,0,0,.751,5.726,6.661,6.661,0,0,0,5.35,2.825,12.074,12.074,0,0,0,6.381-1.586c-.887-.446-1.769-.9-2.639-1.363a6.446,6.446,0,0,1-3.275,1.339" transform="translate(-947.772 -110.272)" fill="#f9f9f9"/>
      <path id="Path_3193" data-name="Path 3193" d="M1223.013,128.7c.058.184.109.368.148.552a4.106,4.106,0,0,1-.7,3.513,3.646,3.646,0,0,1-3.212,1.206,6.441,6.441,0,0,1-3.274-1.338c-.87.46-1.753.917-2.64,1.363a12.072,12.072,0,0,0,6.381,1.586,6.663,6.663,0,0,0,5.35-2.825,7.062,7.062,0,0,0,.753-5.726c-.837.506-1.783,1.071-2.806,1.67" transform="translate(-1053.249 -110.271)" fill="#f9f9f9"/>
      <path id="Path_3194" data-name="Path 3194" d="M1215.667,118.562l-.146-.475-.424.258c-3.253,1.976-8.429,5.009-13.54,7.539l-.628.311.6.365a13.036,13.036,0,0,0,7.469,2.029,7.468,7.468,0,0,0,5.946-3.168,8,8,0,0,0,.725-6.858m-1.369,6.431a6.663,6.663,0,0,1-5.35,2.825,12.071,12.071,0,0,1-6.381-1.586c.887-.446,1.77-.9,2.64-1.363a6.442,6.442,0,0,0,3.274,1.339,3.647,3.647,0,0,0,3.212-1.206,4.107,4.107,0,0,0,.7-3.513c-.039-.184-.09-.368-.148-.552,1.023-.6,1.969-1.163,2.806-1.67a7.062,7.062,0,0,1-.753,5.726" transform="translate(-1042.479 -102.507)" fill="#df1f26"/>
      <path id="Path_3195" data-name="Path 3195" d="M1094.394,122.686l1.122-4.43-3.194,3.265c-2.067-1.178-3.927-2.285-5.394-3.176l-.424-.258-.145.475a8,8,0,0,0,.722,6.858,6.7,6.7,0,0,0,2.09,1.991l-.784,3.358,2.457-2.595a8.965,8.965,0,0,0,2.182.413,13.039,13.039,0,0,0,7.469-2.029l.6-.365-.628-.311c-2.057-1.018-4.123-2.118-6.072-3.2m-1.319,5.132a6.661,6.661,0,0,1-5.35-2.825,7.062,7.062,0,0,1-.75-5.726c.836.506,1.782,1.07,2.805,1.669-.058.184-.109.368-.149.552a4.107,4.107,0,0,0,.7,3.513,3.645,3.645,0,0,0,3.211,1.206,6.446,6.446,0,0,0,3.274-1.339c.87.46,1.752.917,2.639,1.363a12.073,12.073,0,0,1-6.381,1.586" transform="translate(-942.644 -102.507)" fill="#df1f26"/>
      <path id="Path_3196" data-name="Path 3196" d="M1155.676,204.815a6.194,6.194,0,0,1,.065-.958,4.107,4.107,0,0,1,1.881-3.048,3.647,3.647,0,0,1,3.431-.011,6.579,6.579,0,0,1,2.819,2.751c-2.914.381-5.746.835-8.2,1.266" transform="translate(-1003.197 -173.939)" fill="#fff"/>
    </g>
  </g>
</svg>
