<?xml version="1.0" encoding="utf-8"?>
<!-- Generator: Adobe Illustrator 27.4.0, SVG Export Plug-In . SVG Version: 6.00 Build 0)  -->
<svg version="1.1" id="Layer_1" xmlns="http://www.w3.org/2000/svg" xmlns:xlink="http://www.w3.org/1999/xlink" x="0px" y="0px"
	 viewBox="0 0 282 59.2" style="enable-background:new 0 0 282 59.2;" xml:space="preserve">
<style type="text/css">
	.st0{enable-background:new    ;}
</style>
<g>
	<g class="st0">
		<path d="M83.3,23.8h6.5V26h-4v4.4H89v2.2h-3.2v6.8h-2.4L83.3,23.8L83.3,23.8z"/>
		<path d="M92,23.8h6.7V26h-4.3v4.1h3.3v2.2h-3.3v4.8h4.3v2.2H92V23.8z"/>
		<path d="M100.9,23.8h3.1l2.4,9.4l0,0v-9.4h2.2v15.6h-2.5l-3-11.4l0,0v11.4h-2.2L100.9,23.8L100.9,23.8z"/>
		<path d="M111.3,23.8h3.1l2.4,9.4l0,0v-9.4h2.2v15.6h-2.5l-3-11.4l0,0v11.4h-2.2L111.3,23.8L111.3,23.8z"/>
		<path d="M121.7,23.8h6.7V26h-4.3v4.1h3.3v2.2h-3.3v4.8h4.3v2.2h-6.7V23.8z"/>
		<path d="M131.4,38.6c-0.6-0.7-0.9-1.6-0.9-2.8v-8.4c0-1.2,0.3-2.1,0.9-2.8s1.5-1,2.7-1s2,0.4,2.7,1c0.6,0.7,0.9,1.6,0.9,2.8v1.7
			h-2.3v-1.8c0-0.9-0.4-1.5-1.2-1.5s-1.2,0.5-1.2,1.5v8.7c0,0.9,0.4,1.4,1.2,1.4s1.2-0.5,1.2-1.4v-2.4h2.3v2.2
			c0,1.2-0.3,2.1-0.9,2.8c-0.6,0.7-1.5,1-2.7,1C133,39.6,132.1,39.3,131.4,38.6z"/>
		<path d="M144.6,23.8h6.5V26h-4v4.4h3.2v2.2h-3.2v6.8h-2.4L144.6,23.8L144.6,23.8z"/>
		<path d="M153.9,38.6c-0.6-0.7-0.9-1.7-0.9-2.9v-8.2c0-1.2,0.3-2.2,0.9-2.9c0.6-0.7,1.6-1,2.8-1s2.1,0.4,2.8,1
			c0.6,0.7,0.9,1.7,0.9,2.9v8.2c0,1.2-0.3,2.2-0.9,2.9c-0.6,0.7-1.6,1-2.8,1S154.6,39.3,153.9,38.6z M158,35.8v-8.5
			c0-1-0.5-1.6-1.3-1.6s-1.3,0.6-1.3,1.6v8.5c0,1,0.5,1.6,1.3,1.6S158,36.9,158,35.8z"/>
		<path d="M164.8,31.4l-2.7-7.6h2.6l1.7,5l0,0l1.7-5h2.3l-2.7,7.6l2.8,8h-2.6l-1.8-5.5l0,0l-1.9,5.5h-2.3L164.8,31.4z"/>
		<path d="M177,23.8h3.6c1.3,0,2.2,0.3,2.8,0.8c0.6,0.6,0.8,1.5,0.8,2.7v0.9c0,1.6-0.6,2.6-1.6,3.1l0,0c0.6,0.2,1,0.6,1.3,1.1
			c0.3,0.6,0.4,1.3,0.4,2.2v2.8c0,0.5,0,0.8,0,1.1c0,0.3,0.1,0.6,0.2,0.8H182c-0.1-0.3-0.2-0.5-0.2-0.7c0-0.2,0-0.7,0-1.2v-2.9
			c0-0.7-0.1-1.2-0.4-1.5c-0.2-0.3-0.6-0.5-1.2-0.5h-0.8v6.7H177L177,23.8L177,23.8z M180.4,30.5c0.5,0,0.8-0.1,1.1-0.4
			c0.3-0.3,0.4-0.7,0.4-1.3v-1.2c0-0.6-0.1-0.9-0.3-1.2c-0.2-0.3-0.6-0.4-0.9-0.4h-1.1v4.5L180.4,30.5L180.4,30.5z"/>
		<path d="M188.7,23.8h3.3l2.5,15.6h-2.4l-0.5-3.1l0,0h-2.8l-0.5,3.1h-2.2L188.7,23.8z M191.4,34.3l-1.1-7.7l0,0l-1.1,7.7H191.4z"/>
		<path d="M196.7,23.8h6.5V26h-4v4.4h3.2v2.2h-3.2v6.8h-2.4L196.7,23.8L196.7,23.8z"/>
		<path d="M205.2,23.8h6.5V26h-4v4.4h3.2v2.2h-3.2v6.8h-2.4L205.2,23.8L205.2,23.8z"/>
		<path d="M213.8,23.8h2.4v13.4h4v2.2h-6.5L213.8,23.8L213.8,23.8z"/>
		<path d="M222.3,23.8h6.7V26h-4.3v4.1h3.3v2.2h-3.3v4.8h4.3v2.2h-6.7V23.8z"/>
		<path d="M236.5,38.6c-0.6-0.7-0.9-1.6-0.9-2.8v-8.4c0-1.2,0.3-2.1,0.9-2.8s1.5-1,2.7-1c1.2,0,2,0.4,2.7,1c0.6,0.7,0.9,1.6,0.9,2.8
			v1.7h-2.3v-1.8c0-0.9-0.4-1.5-1.2-1.5s-1.2,0.5-1.2,1.5v8.7c0,0.9,0.4,1.4,1.2,1.4s1.2-0.5,1.2-1.4v-2.4h2.3v2.2
			c0,1.2-0.3,2.1-0.9,2.8c-0.6,0.7-1.5,1-2.7,1C238.1,39.6,237.2,39.3,236.5,38.6z"/>
		<path d="M245.3,23.8h2.4v13.4h4v2.2h-6.5L245.3,23.8L245.3,23.8z"/>
		<path d="M254.6,38.6c-0.6-0.7-0.9-1.7-0.9-2.9v-12h2.4v12.1c0,0.6,0.1,0.9,0.3,1.1c0.2,0.2,0.6,0.4,0.9,0.4s0.7-0.1,0.9-0.4
			c0.2-0.3,0.3-0.7,0.3-1.1V23.8h2.3v11.9c0,1.3-0.3,2.2-0.9,2.9c-0.6,0.7-1.5,1-2.7,1C256,39.6,255.2,39.3,254.6,38.6z"/>
		<path d="M263.6,23.8h3.7c1.3,0,2.2,0.3,2.8,0.8s0.8,1.5,0.8,2.7v0.7c0,0.8-0.1,1.5-0.4,1.9c-0.3,0.5-0.6,0.8-1.2,1.1l0,0
			c1.2,0.4,1.9,1.5,1.9,3.2v1.3c0,1.2-0.3,2.1-0.9,2.8c-0.6,0.7-1.6,0.9-2.8,0.9h-3.9V23.8z M267,30.2c0.5,0,0.8-0.1,1.1-0.4
			c0.3-0.3,0.4-0.7,0.4-1.3v-0.8c0-0.6-0.1-0.9-0.3-1.2s-0.6-0.4-0.9-0.4h-1.2v4.1L267,30.2L267,30.2z M267.5,37.1
			c0.5,0,0.7-0.1,0.9-0.4c0.2-0.2,0.3-0.7,0.3-1.2v-1.4c0-0.7-0.1-1.2-0.4-1.5c-0.3-0.3-0.6-0.4-1.2-0.4H266v4.8H267.5z"/>
	</g>
	<g id="Logo-with_padding" transform="translate(-15 8871.814)">
		<path id="FFRC-logo" d="M67.7-8837.2c1-1.1,1.9-2.3,2.7-3.5c1.7-2.9,2.7-6,2.8-9.4v-0.1c0-0.5,0.1-0.9,0.1-1.4
			c0.5-6.1,2-12.2,4.6-17.8c0-0.1,0-0.2-0.1-0.3c-0.1,0-0.1,0-0.2,0c-1.8,1.2-3.4,2.6-5,4c-1,0.9-1.9,1.9-3,2.9
			c-3.3,3.6-6.2,7.6-8.4,12c-0.6,1.1-1.1,2.2-1.6,3.3l0,0c-0.2-0.1-0.5-0.2-0.6-0.4c-2.1-1-4.5-1.6-6.9-1.6H52c-0.1,0-0.1,0-0.2,0
			c-0.1,0-0.1,0-0.2,0h-0.1c-2.4,0-4.7,0.6-6.9,1.6c-0.2,0.1-0.5,0.2-0.6,0.4l0,0c-0.5-1.1-1-2.2-1.6-3.3c-2.2-4.4-5.1-8.4-8.4-12
			c-0.9-1-1.9-1.9-3-2.9c-1.6-1.4-3.2-2.8-5-4c-0.1-0.1-0.2,0-0.3,0.1c0,0.1,0,0.1,0,0.2c2.6,5.6,4.2,11.6,4.6,17.8
			c0,0.5,0.1,0.9,0.1,1.4v0.1c0.3,4.8,2.2,9.4,5.5,12.9l0,0l0,0l0,0c0.1,1.7,2.9,4,4.5,4.2c1.7,0.2,3.2,0.9,4.5,2l0,0
			c0.2,0.2,0.4,0.3,0.6,0.5c0.8,0.8,1.5,1.9,1.9,3l0,0c0.3,0.7,0.5,1.3,0.6,2c-4-0.6-7.1-3.6-7.6-7.6c-1.8-0.3-3.5,0-5.1,0.8
			c0.1,2.3,0.6,4.5,1.7,6.6c0.1,0.3,0.4,0.4,0.6,0.4c0.6-0.1,1-0.1,1.6-0.1c3.4,0,6.5,1.9,8,5l0,0c-0.7,1.7-0.1,3.6,1.5,4.5l1.3,0.7
			c1.1,0.5,2.4,0.5,3.5,0l1.3-0.7c1.6-0.9,2.2-2.9,1.5-4.5l0,0c1.5-3.1,4.5-5,8-5c0.6,0,1,0,1.6,0.1c0.3,0.1,0.6-0.1,0.6-0.4
			c1-2,1.6-4.3,1.7-6.6c-1.6-0.7-3.3-1-5.1-0.8c-0.6,4-3.6,7.1-7.6,7.6c0.1-0.7,0.3-1.4,0.6-2l0,0c0.5-1.1,1.1-2.1,1.9-3
			c0.2-0.2,0.4-0.3,0.6-0.5l0,0c1.3-1.1,2.9-1.9,4.5-2C64.9-8833.2,67.7-8835.4,67.7-8837.2"/>
	</g>
</g>
</svg>
