<?xml version="1.0" encoding="utf-8"?>
<!-- Generator: Adobe Illustrator 26.2.1, SVG Export Plug-In . SVG Version: 6.00 Build 0)  -->
<svg version="1.1" id="a" xmlns="http://www.w3.org/2000/svg" xmlns:xlink="http://www.w3.org/1999/xlink" x="0px" y="0px"
	 viewBox="0 0 133.9 29.7" style="enable-background:new 0 0 133.9 29.7;" xml:space="preserve">
<g id="b">
	<g transform="translate(6 8.968)">
		<path d="M-4.1-5h4.3l8.5,18.9L17.1-5h4.2v24.1h-4V2.6L10,19.1H7.3L-0.1,2.6v16.5h-4V-5z"/>
		<path d="M34.8,19.4c-5.5,0-9.5-3.9-9.5-9.9s3.9-9.9,9.5-9.9s9.3,3.8,9.3,9.4c0,0.6,0,1.3-0.1,1.9H29.3c0.1,2.9,2.5,5.2,5.5,5.1
			l0,0c1.9,0.1,3.7-0.9,4.5-2.7h4.3C42.5,16.7,39.5,19.4,34.8,19.4L34.8,19.4z M29.4,7.8H40C39.9,4.9,37.6,3,34.6,3
			C31.9,3,29.6,5.1,29.4,7.8L29.4,7.8z"/>
		<path d="M47.5-5.1c0-1.4,1.1-2.5,2.5-2.5c0,0,0,0,0.1,0c1.4,0,2.5,1.1,2.5,2.4c0,0,0,0.1,0,0.1c0,1.4-1.1,2.5-2.5,2.5c0,0,0,0,0,0
			C48.6-2.6,47.5-3.7,47.5-5.1L47.5-5.1L47.5-5.1z M48,0h4v19.1h-4V0L48,0L48,0z"/>
		<path d="M55.9-5h16.9v3.2h-6.4v20.9h-4V-1.8h-6.5C55.9-1.8,55.9-5,55.9-5z"/>
		<path d="M84.5-0.3c2.6-0.1,5,1.1,6.6,3.1V0h4v19.1h-4v-2.9c-1.6,2.1-4.1,3.2-6.7,3.2c-5,0-9-4.1-9-10S79.5-0.3,84.5-0.3L84.5-0.3
			L84.5-0.3z M85.3,3.1c-2.9,0-5.8,2.2-5.8,6.4s2.8,6.5,5.8,6.5s5.8-2.3,5.8-6.5S88.3,3.1,85.3,3.1z"/>
		<path d="M100.4-6.6h4v25.7h-4V-6.6z"/>
		<path d="M109.5-6.6h4V8.3l6.9-8.4h5.5l-8.8,9.6l8.8,9.6h-5.3l-7.1-8.2v8.2h-4V-6.6z"/>
	</g>
</g>
</svg>
